<svg id="Capa_1" enable-background="new 0 0 508 508" height="512" viewBox="0 0 508 508" width="512" xmlns="http://www.w3.org/2000/svg"><path id="XMLID_149_" d="m343.719 130.671-84.032-29.613-91.921 30.778 86.234 28.834z"/><path id="XMLID_151_" d="m133.5 152.012v128.003l105.5 33.315v-126.043z"/><path id="XMLID_154_" d="m269 187.288v126.042l110.08-34.761v-128.089z"/><path id="XMLID_173_" d="m409.08 140.449v128.647l98.92-31.237v-130.486z"/><path id="XMLID_177_" d="m409.08 300.556v146.696l98.92-34.465v-143.469z"/><path id="XMLID_178_" d="m379.08 310.029-110.08 34.761v151.266l110.08-38.352z"/><path id="XMLID_179_" d="m239 344.79-105.5-33.315v147.825l105.5 36.756z"/><path id="XMLID_180_" d="m120.491 116.029 93.16-31.193-93.819-33.062-101.445 30.115z"/><path id="XMLID_181_" d="m305.971 85.56 84.064 29.624 99.577-33.295-91.527-27.172z"/><path id="XMLID_182_" d="m259.936 69.338 88.067-29.488-94.003-27.906-85.177 25.286z"/><path id="XMLID_187_" d="m103.5 270.542v-128.562l-103.5-34.607v130.486z"/><path id="XMLID_188_" d="m103.5 302.002-103.5-32.684v143.469l103.5 36.06z"/></svg>