<svg id="Capa_1" enable-background="new 0 0 512 512" height="512" viewBox="0 0 512 512" width="512" xmlns="http://www.w3.org/2000/svg"><g><g id="Personal_Computer"><g><path d="m0 136v300h421v-300zm211 240h-150v-15c0-41.353 33.647-75 75-75-24.814 0-45-20.186-45-45s20.186-45 45-45 45 20.186 45 45-20.186 45-45 45c41.353 0 75 33.647 75 75zm150 0h-120v-30h120zm0-60h-120v-30h120z"/><path d="m136 316c-19.556 0-36.24 12.539-42.437 30h84.873c-6.196-17.461-22.88-30-42.436-30z"/><circle cx="136" cy="241" r="15"/></g><path d="m451 166v300h-122.183l15 30h168.183v-330z"/><path d="m271 16v90h180v30h61v-120zm135 60h-30v-30h30z"/></g><path d="m126.728 466-15 30h198.544l-15-30z"/></g></svg>