<svg height="512pt" viewBox="-50 0 511 512" width="512pt" xmlns="http://www.w3.org/2000/svg"><path d="m101.351562 76.148438c-11.453124 0-20.769531 9.320312-20.769531 20.773437 0 11.449219 9.316407 20.769531 20.769531 20.769531 11.453126 0 20.769532-9.320312 20.769532-20.769531 0-11.453125-9.316406-20.773437-20.769532-20.773437zm0 0"/><path d="m256.671875 193.296875v207.335937h154.296875v-207.335937zm77.125 173.410156h-30c-8.28125 0-15-6.71875-15-15 0-8.285156 6.71875-15 15-15h30c8.285156 0 15 6.714844 15 15 0 8.28125-6.714844 15-15 15zm0-55h-30c-8.28125 0-15-6.71875-15-15 0-8.285156 6.71875-15 15-15h30c8.285156 0 15 6.714844 15 15 0 8.28125-6.714844 15-15 15zm0-55h-30c-8.28125 0-15-6.71875-15-15 0-8.285156 6.71875-15 15-15h30c8.285156 0 15 6.714844 15 15 0 8.28125-6.714844 15-15 15zm0 0"/><path d="m.5 430.632812v36.367188c0 24.8125 20.1875 45 45 45h320.46875c24.8125 0 45-20.1875 45-45v-36.367188zm0 0"/><path d="m410.964844 163.296875v-118.296875c0-24.8125-20.1875-45-45-45h-320.464844c-24.8125 0-45 20.1875-45 45v118.296875zm-309.613282-15.609375c-27.996093 0-50.769531-22.773438-50.769531-50.769531 0-27.992188 22.773438-50.769531 50.769531-50.769531 27.996094 0 50.769532 22.777343 50.769532 50.769531 0 27.996093-22.773438 50.769531-50.769532 50.769531zm189.382813-9.390625h-80c-8.285156 0-15-6.71875-15-15 0-8.285156 6.714844-15 15-15h80c8.28125 0 15 6.714844 15 15 0 8.28125-6.71875 15-15 15zm48-50h-128c-8.285156 0-15-6.71875-15-15 0-8.285156 6.714844-15 15-15h128c8.28125 0 15 6.714844 15 15 0 8.28125-6.71875 15-15 15zm0 0"/><path d="m226.671875 400.632812v-207.335937h-226.171875v207.335937zm-160.125-173.925781h51.535156c8.28125 0 15 6.714844 15 15 0 8.28125-6.71875 15-15 15h-51.535156c-8.285156 0-15-6.71875-15-15 0-8.285156 6.714844-15 15-15zm0 55h111.519531c8.285156 0 15 6.714844 15 15 0 8.28125-6.714844 15-15 15h-111.519531c-8.285156 0-15-6.71875-15-15 0-8.285156 6.714844-15 15-15zm0 55h87.519531c8.285156 0 15 6.714844 15 15 0 8.28125-6.714844 15-15 15h-87.519531c-8.285156 0-15-6.71875-15-15 0-8.285156 6.714844-15 15-15zm0 0"/></svg>