<svg height="448pt" viewBox="-16 0 448 448.016" width="448pt" xmlns="http://www.w3.org/2000/svg"><path d="m352.007812 24.015625c0-13.253906-10.746093-24-24-24-13.253906 0-24 10.746094-24 24v264h56c-5.207031-6.917969-8.015624-15.34375-8-24zm0 0"/><path d="m376.289062 281.449219c3.289063 3.1875 7.441407 5.335937 11.941407 6.183593.5625.09375 1.136719.128907 1.714843.175782 1.058594.136718 2.128907.199218 3.199219.183594 12.808594-.585938 22.886719-11.152344 22.863281-23.976563v-184h-48v182.191406c.027344 7.273438 3.015626 14.222657 8.28125 19.242188zm0 0"/><path d="m288.007812 24.015625c.019532-2.488281.269532-4.972656.753907-7.414063.140625-.800781.375-1.488281.558593-2.242187.394532-1.628906.894532-3.230469 1.488282-4.800781.3125-.796875.648437-1.597656 1.007812-2.335938.683594-1.449218 1.453125-2.863281 2.304688-4.222656.414062-.679688.800781-1.359375 1.269531-2.007812.226563-.320313.394531-.679688.632813-.992188h-272.015626c-13.261718 0-24.007812 10.753906-23.9999995 24.015625v424h223.9999995v-40c0-13.253906 10.746094-24 24-24h40zm-32 304h-224v-16h224zm0-64h-224v-16h224zm0-64h-224v-16h224zm0-64h-224v-16h224zm0-64h-224v-16h224zm0 0"/><path d="m240.007812 408.015625v28.6875l36.6875-36.6875h-28.6875c-4.417968 0-8 3.582031-8 8zm0 0"/></svg>