<?xml version="1.0" encoding="iso-8859-1"?>
<!-- Generator: Adobe Illustrator 19.0.0, SVG Export Plug-In . SVG Version: 6.00 Build 0)  -->
<svg version="1.1" id="Capa_1" xmlns="http://www.w3.org/2000/svg" xmlns:xlink="http://www.w3.org/1999/xlink" x="0px" y="0px"
	 viewBox="0 0 490.667 490.667" style="enable-background:new 0 0 490.667 490.667;" xml:space="preserve">
<path style="fill:#2196F3;" d="M437.333,0h-192c-5.891,0-10.667,4.776-10.667,10.667v234.667c0,5.891,4.776,10.667,10.667,10.667
	H480c5.891,0,10.667-4.776,10.667-10.667v-192C490.667,23.878,466.789,0,437.333,0z"/>
<path style="fill:#37474F;" d="M245.333,234.667H10.667C4.776,234.667,0,239.442,0,245.333v192
	c0,29.455,23.878,53.333,53.333,53.333h192c5.891,0,10.667-4.776,10.667-10.667V245.333
	C256,239.442,251.224,234.667,245.333,234.667z"/>
<path d="M480,256H245.333c-5.891,0-10.667-4.776-10.667-10.667V10.667C234.667,4.776,239.442,0,245.333,0h192
	c29.455,0,53.333,23.878,53.333,53.333v192C490.667,251.224,485.891,256,480,256z M256,234.667h213.333V53.333
	c0-17.673-14.327-32-32-32H256V234.667z"/>
<path d="M245.333,490.667h-192C23.878,490.667,0,466.789,0,437.333v-192c0-5.891,4.776-10.667,10.667-10.667h234.667
	c5.891,0,10.667,4.776,10.667,10.667V480C256,485.891,251.224,490.667,245.333,490.667z M21.333,256v181.333
	c0,17.673,14.327,32,32,32h181.333V256H21.333z"/>
<g>
</g>
<g>
</g>
<g>
</g>
<g>
</g>
<g>
</g>
<g>
</g>
<g>
</g>
<g>
</g>
<g>
</g>
<g>
</g>
<g>
</g>
<g>
</g>
<g>
</g>
<g>
</g>
<g>
</g>
</svg>
